# WaveFront *.obj file (generated by Autodesk ATF)

mtllib prowadnica.mtl

g Srf1

v -160.000000 0.000000 -28.284271
v -160.000000 0.000000 -18.284271
v -160.000000 4300.000000 -28.284271
v -160.000000 4300.000000 -18.284271
v -156.999998 0.000000 -23.284271
v -156.999998 0.000000 -18.284271
v -156.999998 4300.000000 -23.284271
v -156.999998 4300.000000 -18.284271
v -156.732054 0.000000 -24.284272
v -156.732054 4300.000000 -24.284272
v -156.000004 0.000000 -25.016322
v -156.000004 4300.000000 -25.016322
v -155.000000 0.000000 -25.284271
v -155.000000 4300.000000 -25.284271
v -61.640425 0.000000 -25.284271
v -61.640425 4300.000000 -25.284271
v -61.414213 0.000000 -28.284271
v -61.414213 4300.000000 -28.284271
v -60.842619 0.000000 -25.118258
v -60.842619 4300.000000 -25.118258
v -60.616407 0.000000 -28.118258
v -60.616407 4300.000000 -28.118258
v -60.177259 0.000000 -24.647777
v -60.177259 4300.000000 -24.647777
v -59.951048 0.000000 -27.647779
v -59.951048 4300.000000 -27.647779
v -59.754806 0.000000 -23.950937
v -59.754806 4300.000000 -23.950937
v -59.528594 0.000000 -26.950939
v -59.528594 4300.000000 -26.950939
v -50.471406 0.000000 -1.333333
v -50.471406 4300.000000 -1.333333
v -50.274940 0.000000 2.862180
v -50.274940 4300.000000 2.862180
v -50.226212 0.000000 3.000000
v -50.226212 4300.000000 3.000000
v -50.048952 0.000000 -0.636493
v -50.048952 4300.000000 -0.636493
v -49.383593 0.000000 -0.166013
v -49.383593 4300.000000 -0.166013
v -48.585787 0.000000 0.000000
v -48.585787 4300.000000 0.000000
v 0.000000 0.000000 0.000000
v 0.000000 0.000000 3.000000
v 0.000000 4300.000000 0.000000
v 0.000000 4300.000000 3.000000
vt 9.535957 0.000000 0.000000
vt 9.535957 430.000000 0.000000
vt 0.200000 430.000000 0.000000
vt 0.200000 0.000000 0.000000
vt 0.500000 0.000000 0.000000
vt 0.500000 430.000000 0.000000
vt 0.000000 430.000000 0.000000
vt 0.000000 0.000000 0.000000
vt 0.000000 0.000000 0.000000
vt 0.300000 0.000000 0.000000
vt 0.300000 430.000000 0.000000
vt 0.000000 430.000000 0.000000
vt 0.000000 0.000000 0.000000
vt 1.000000 0.000000 0.000000
vt 1.000000 430.000000 0.000000
vt 0.000000 430.000000 0.000000
vt 430.000000 -0.157080 0.000000
vt 430.000000 -0.052360 0.000000
vt 430.000000 0.052360 0.000000
vt 430.000000 0.157080 0.000000
vt 0.000000 0.157080 0.000000
vt 0.000000 0.052360 0.000000
vt 0.000000 -0.052360 0.000000
vt 0.000000 -0.157080 0.000000
vt 0.141421 430.000000 0.000000
vt 0.141421 0.000000 0.000000
vt 2.858579 0.000000 0.000000
vt 2.858579 430.000000 0.000000
vt 4.858579 0.000000 0.000000
vt 4.858579 430.000000 0.000000
vt 0.000000 430.000000 0.000000
vt 0.000000 0.000000 0.000000
vt 0.000000 0.000000 0.000000
vt 0.300000 0.000000 0.000000
vt 0.300000 430.000000 0.000000
vt 0.000000 430.000000 0.000000
vt 0.000000 0.000000 0.000000
vt 5.022621 0.000000 0.000000
vt 5.022621 430.000000 0.000000
vt 0.000000 430.000000 0.000000
vt 0.141421 430.000000 0.000000
vt 0.141421 0.000000 0.000000
vt 2.985382 0.000000 0.000000
vt 2.985382 430.000000 0.000000
vt -430.000000 0.123096 0.000000
vt -430.000000 0.041032 0.000000
vt -430.000000 -0.041032 0.000000
vt -430.000000 -0.123096 0.000000
vt -0.000000 -0.123096 0.000000
vt -0.000000 -0.041032 0.000000
vt -0.000000 0.041032 0.000000
vt -0.000000 0.123096 0.000000
vt 0.141421 430.000000 0.000000
vt 0.141421 0.000000 0.000000
vt 10.000000 0.000000 0.000000
vt 10.000000 430.000000 0.000000
vt 430.000000 -0.123096 0.000000
vt 430.000000 -0.041032 0.000000
vt 430.000000 0.041032 0.000000
vt 430.000000 0.123096 0.000000
vt 0.000000 0.123096 0.000000
vt 0.000000 0.041032 0.000000
vt 0.000000 -0.041032 0.000000
vt 0.000000 -0.123096 0.000000
vt 430.000000 -0.123096 0.000000
vt 430.000000 -0.041032 0.000000
vt 430.000000 0.041032 0.000000
vt 430.000000 0.123096 0.000000
vt 0.000000 0.123096 0.000000
vt 0.000000 0.041032 0.000000
vt 0.000000 -0.041032 0.000000
vt 0.000000 -0.123096 0.000000
vn 0.000000 0.000000 0.100000
vn 0.000000 0.000000 0.100000
vn 0.000000 0.000000 0.100000
vn 0.000000 0.000000 0.100000
vn 0.100000 0.000000 0.000000
vn 0.100000 0.000000 0.000000
vn 0.100000 0.000000 0.000000
vn 0.100000 0.000000 0.000000
vn 0.000000 0.000000 0.100000
vn 0.000000 0.000000 0.100000
vn 0.000000 0.000000 0.100000
vn 0.000000 0.000000 0.100000
vn -0.100000 0.000000 0.000000
vn -0.100000 0.000000 0.000000
vn -0.100000 0.000000 0.000000
vn -0.100000 0.000000 0.000000
vn 0.000000 0.000000 0.100000
vn 0.050000 0.000000 0.086603
vn 0.086603 0.000000 0.050000
vn 0.100000 0.000000 0.000000
vn 0.100000 0.000000 0.000000
vn 0.086603 0.000000 0.050000
vn 0.050000 0.000000 0.086603
vn 0.000000 0.000000 0.100000
vn 0.094281 0.000000 -0.033333
vn 0.094281 0.000000 -0.033333
vn 0.094281 0.000000 -0.033333
vn 0.094281 0.000000 -0.033333
vn 0.000000 0.000000 -0.100000
vn 0.000000 0.000000 -0.100000
vn 0.000000 0.000000 -0.100000
vn 0.000000 0.000000 -0.100000
vn 0.100000 0.000000 0.000000
vn 0.100000 0.000000 0.000000
vn 0.100000 0.000000 0.000000
vn 0.100000 0.000000 0.000000
vn 0.000000 0.000000 0.100000
vn 0.000000 0.000000 0.100000
vn 0.000000 0.000000 0.100000
vn 0.000000 0.000000 0.100000
vn -0.094281 0.000000 0.033333
vn -0.094281 0.000000 0.033333
vn -0.094281 0.000000 0.033333
vn -0.094281 0.000000 0.033333
vn 0.000000 0.000000 -0.100000
vn 0.039890 0.000000 -0.091699
vn 0.073158 0.000000 -0.068175
vn 0.094281 0.000000 -0.033333
vn 0.094281 0.000000 -0.033333
vn 0.073158 0.000000 -0.068175
vn 0.039890 0.000000 -0.091699
vn 0.000000 0.000000 -0.100000
vn 0.000000 0.000000 -0.100000
vn 0.000000 0.000000 -0.100000
vn 0.000000 0.000000 -0.100000
vn 0.000000 0.000000 -0.100000
vn 0.094281 0.000000 -0.033333
vn 0.073158 0.000000 -0.068175
vn 0.039890 0.000000 -0.091699
vn 0.000000 0.000000 -0.100000
vn 0.000000 0.000000 -0.100000
vn 0.039890 0.000000 -0.091699
vn 0.073158 0.000000 -0.068175
vn 0.094281 0.000000 -0.033333
vn -0.094281 0.000000 0.033333
vn -0.073158 0.000000 0.068175
vn -0.039890 0.000000 0.091699
vn 0.000000 0.000000 0.100000
vn 0.000000 0.000000 0.100000
vn -0.039890 0.000000 0.091699
vn -0.073158 0.000000 0.068175
vn -0.094281 0.000000 0.033333
usemtl 191,191,191
f 16/2/2 14/3/3 15/1/1
f 15/1/1 14/3/3 13/4/4
f 7/6/6 8/7/7 5/5/5
f 5/5/5 8/7/7 6/8/8
f 2/9/9 6/10/10 4/12/12
f 4/12/12 6/10/10 8/11/11
f 1/13/13 2/14/14 3/16/16
f 3/16/16 2/14/14 4/15/15
f 13/24/24 14/17/17 11/23/23
f 11/23/23 14/17/17 12/18/18
f 11/23/23 12/18/18 9/22/22
f 9/22/22 12/18/18 10/19/19
f 9/22/22 10/19/19 5/21/21
f 5/21/21 10/19/19 7/20/20
f 31/26/26 29/27/27 32/25/25
f 32/25/25 29/27/27 30/28/28
f 42/30/30 45/31/31 41/29/29
f 41/29/29 45/31/31 43/32/32
f 44/33/33 43/34/34 46/36/36
f 46/36/36 43/34/34 45/35/35
f 35/37/37 44/38/38 36/40/40
f 36/40/40 44/38/38 46/39/39
f 27/42/42 33/43/43 28/41/41
f 28/41/41 33/43/43 34/44/44
f 17/52/52 18/45/45 21/51/51
f 21/51/51 18/45/45 22/46/46
f 21/51/51 22/46/46 26/47/47
f 30/48/48 29/49/49 26/47/47
f 26/47/47 29/49/49 25/50/50
f 26/47/47 25/50/50 21/51/51
f 17/54/54 1/55/55 18/53/53
f 18/53/53 1/55/55 3/56/56
f 31/64/64 32/57/57 37/63/63
f 37/63/63 32/57/57 38/58/58
f 37/63/63 38/58/58 40/59/59
f 42/60/60 41/61/61 40/59/59
f 40/59/59 41/61/61 39/62/62
f 40/59/59 39/62/62 37/63/63
f 27/72/72 28/65/65 23/71/71
f 23/71/71 28/65/65 24/66/66
f 23/71/71 24/66/66 20/67/67
f 16/68/68 15/69/69 20/67/67
f 20/67/67 15/69/69 19/70/70
f 20/67/67 19/70/70 23/71/71
g Srf2

v 0.000000 0.000000 0.000000
v 0.000000 0.000000 3.000000
v 0.000000 4300.000000 0.000000
v 0.000000 4300.000000 3.000000
v 48.585787 0.000000 0.000000
v 48.585787 4300.000000 0.000000
v 49.383593 0.000000 -0.166013
v 49.383593 4300.000000 -0.166013
v 50.048952 0.000000 -0.636493
v 50.048952 4300.000000 -0.636493
v 50.226212 0.000000 3.000000
v 50.226212 4300.000000 3.000000
v 50.274940 0.000000 2.862180
v 50.274940 4300.000000 2.862180
v 50.471406 0.000000 -1.333333
v 50.471406 4300.000000 -1.333333
v 59.528594 0.000000 -26.950939
v 59.528594 4300.000000 -26.950939
v 59.754806 0.000000 -23.950937
v 59.754806 4300.000000 -23.950937
v 59.951048 0.000000 -27.647779
v 59.951048 4300.000000 -27.647779
v 60.177259 0.000000 -24.647777
v 60.177259 4300.000000 -24.647777
v 60.616407 0.000000 -28.118258
v 60.616407 4300.000000 -28.118258
v 60.842619 0.000000 -25.118258
v 60.842619 4300.000000 -25.118258
v 61.414213 0.000000 -28.284271
v 61.414213 4300.000000 -28.284271
v 61.640425 0.000000 -25.284271
v 61.640425 4300.000000 -25.284271
v 155.000000 0.000000 -25.284271
v 155.000000 4300.000000 -25.284271
v 156.000004 0.000000 -25.016322
v 156.000004 4300.000000 -25.016322
v 156.732054 0.000000 -24.284272
v 156.732054 4300.000000 -24.284272
v 156.999998 0.000000 -23.284271
v 156.999998 0.000000 -18.284271
v 156.999998 4300.000000 -23.284271
v 156.999998 4300.000000 -18.284271
v 160.000000 0.000000 -28.284271
v 160.000000 0.000000 -18.284271
v 160.000000 4300.000000 -28.284271
v 160.000000 4300.000000 -18.284271
vt -0.141421 0.000000 0.000000
vt -0.141421 430.000000 0.000000
vt -2.858579 430.000000 0.000000
vt -2.858579 0.000000 0.000000
vt -4.858579 430.000000 0.000000
vt -4.858579 0.000000 0.000000
vt -0.000000 0.000000 0.000000
vt -0.000000 430.000000 0.000000
vt -0.300000 0.000000 0.000000
vt -0.000000 0.000000 0.000000
vt -0.000000 430.000000 0.000000
vt -0.300000 430.000000 0.000000
vt -1.000000 0.000000 0.000000
vt -0.000000 0.000000 0.000000
vt -0.000000 430.000000 0.000000
vt -1.000000 430.000000 0.000000
vt 430.000000 -0.123096 0.000000
vt 430.000000 -0.041032 0.000000
vt 430.000000 0.041032 0.000000
vt 430.000000 0.123096 0.000000
vt 0.000000 0.123096 0.000000
vt 0.000000 0.041032 0.000000
vt 0.000000 -0.041032 0.000000
vt 0.000000 -0.123096 0.000000
vt -0.141421 0.000000 0.000000
vt -0.141421 430.000000 0.000000
vt -10.000000 430.000000 0.000000
vt -10.000000 0.000000 0.000000
vt -430.000000 0.123096 0.000000
vt -430.000000 0.041032 0.000000
vt -430.000000 -0.041032 0.000000
vt -430.000000 -0.123096 0.000000
vt -0.000000 -0.123096 0.000000
vt -0.000000 -0.041032 0.000000
vt -0.000000 0.041032 0.000000
vt -0.000000 0.123096 0.000000
vt -0.300000 0.000000 0.000000
vt -0.000000 0.000000 0.000000
vt -0.000000 430.000000 0.000000
vt -0.300000 430.000000 0.000000
vt -5.022621 0.000000 0.000000
vt -0.000000 0.000000 0.000000
vt -0.000000 430.000000 0.000000
vt -5.022621 430.000000 0.000000
vt -9.535957 430.000000 0.000000
vt -9.535957 0.000000 0.000000
vt -0.200000 0.000000 0.000000
vt -0.200000 430.000000 0.000000
vt 430.000000 -0.157080 0.000000
vt 430.000000 -0.052360 0.000000
vt 430.000000 0.052360 0.000000
vt 430.000000 0.157080 0.000000
vt 0.000000 0.157080 0.000000
vt 0.000000 0.052360 0.000000
vt 0.000000 -0.052360 0.000000
vt 0.000000 -0.157080 0.000000
vt -0.500000 430.000000 0.000000
vt -0.500000 0.000000 0.000000
vt -0.000000 0.000000 0.000000
vt -0.000000 430.000000 0.000000
vt -0.141421 0.000000 0.000000
vt -0.141421 430.000000 0.000000
vt -2.985382 430.000000 0.000000
vt -2.985382 0.000000 0.000000
vt 430.000000 -0.123096 0.000000
vt 430.000000 -0.041032 0.000000
vt 430.000000 0.041032 0.000000
vt 430.000000 0.123096 0.000000
vt 0.000000 0.123096 0.000000
vt 0.000000 0.041032 0.000000
vt 0.000000 -0.041032 0.000000
vt 0.000000 -0.123096 0.000000
vn -0.094281 0.000000 -0.033333
vn -0.094281 0.000000 -0.033333
vn -0.094281 0.000000 -0.033333
vn -0.094281 0.000000 -0.033333
vn 0.000000 0.000000 -0.100000
vn 0.000000 0.000000 -0.100000
vn 0.000000 0.000000 -0.100000
vn 0.000000 0.000000 -0.100000
vn 0.000000 0.000000 0.100000
vn 0.000000 0.000000 0.100000
vn 0.000000 0.000000 0.100000
vn 0.000000 0.000000 0.100000
vn 0.100000 0.000000 0.000000
vn 0.100000 0.000000 0.000000
vn 0.100000 0.000000 0.000000
vn 0.100000 0.000000 0.000000
vn 0.000000 0.000000 -0.100000
vn -0.039890 0.000000 -0.091699
vn -0.073158 0.000000 -0.068175
vn -0.094281 0.000000 -0.033333
vn -0.094281 0.000000 -0.033333
vn -0.073158 0.000000 -0.068175
vn -0.039890 0.000000 -0.091699
vn 0.000000 0.000000 -0.100000
vn 0.000000 0.000000 -0.100000
vn 0.000000 0.000000 -0.100000
vn 0.000000 0.000000 -0.100000
vn 0.000000 0.000000 -0.100000
vn -0.094281 0.000000 -0.033333
vn -0.073158 0.000000 -0.068175
vn -0.039890 0.000000 -0.091699
vn 0.000000 0.000000 -0.100000
vn 0.000000 0.000000 -0.100000
vn -0.039890 0.000000 -0.091699
vn -0.073158 0.000000 -0.068175
vn -0.094281 0.000000 -0.033333
vn -0.100000 0.000000 0.000000
vn -0.100000 0.000000 0.000000
vn -0.100000 0.000000 0.000000
vn -0.100000 0.000000 0.000000
vn 0.000000 0.000000 0.100000
vn 0.000000 0.000000 0.100000
vn 0.000000 0.000000 0.100000
vn 0.000000 0.000000 0.100000
vn 0.000000 0.000000 0.100000
vn 0.000000 0.000000 0.100000
vn 0.000000 0.000000 0.100000
vn 0.000000 0.000000 0.100000
vn -0.100000 0.000000 0.000000
vn -0.086603 0.000000 0.050000
vn -0.050000 0.000000 0.086603
vn 0.000000 0.000000 0.100000
vn 0.000000 0.000000 0.100000
vn -0.050000 0.000000 0.086603
vn -0.086603 0.000000 0.050000
vn -0.100000 0.000000 0.000000
vn -0.100000 0.000000 0.000000
vn -0.100000 0.000000 0.000000
vn -0.100000 0.000000 0.000000
vn -0.100000 0.000000 0.000000
vn 0.094281 0.000000 0.033333
vn 0.094281 0.000000 0.033333
vn 0.094281 0.000000 0.033333
vn 0.094281 0.000000 0.033333
vn 0.000000 0.000000 0.100000
vn 0.039890 0.000000 0.091699
vn 0.073158 0.000000 0.068175
vn 0.094281 0.000000 0.033333
vn 0.094281 0.000000 0.033333
vn 0.073158 0.000000 0.068175
vn 0.039890 0.000000 0.091699
vn 0.000000 0.000000 0.100000
f 62/74/74 64/75/75 61/73/73
f 61/73/73 64/75/75 63/76/76
f 51/78/78 47/79/79 52/77/77
f 52/77/77 47/79/79 49/80/80
f 86/81/81 90/82/82 88/84/84
f 88/84/84 90/82/82 92/83/83
f 90/85/85 89/86/86 92/88/88
f 92/88/88 89/86/86 91/87/87
f 51/96/96 52/89/89 53/95/95
f 53/95/95 52/89/89 54/90/90
f 53/95/95 54/90/90 56/91/91
f 62/92/92 61/93/93 56/91/91
f 56/91/91 61/93/93 55/94/94
f 56/91/91 55/94/94 53/95/95
f 76/98/98 91/99/99 75/97/97
f 75/97/97 91/99/99 89/100/100
f 63/108/108 64/101/101 67/107/107
f 67/107/107 64/101/101 68/102/102
f 67/107/107 68/102/102 72/103/103
f 76/104/104 75/105/105 72/103/103
f 72/103/103 75/105/105 71/106/106
f 72/103/103 71/106/106 67/107/107
f 47/109/109 48/110/110 49/112/112
f 49/112/112 48/110/110 50/111/111
f 48/113/113 57/114/114 50/116/116
f 50/116/116 57/114/114 58/115/115
f 77/118/118 79/119/119 78/117/117
f 78/117/117 79/119/119 80/120/120
f 85/128/128 87/121/121 83/127/127
f 83/127/127 87/121/121 84/122/122
f 83/127/127 84/122/122 81/126/126
f 81/126/126 84/122/122 82/123/123
f 81/126/126 82/123/123 79/125/125
f 79/125/125 82/123/123 80/124/124
f 85/130/130 86/131/131 87/129/129
f 87/129/129 86/131/131 88/132/132
f 66/134/134 60/135/135 65/133/133
f 65/133/133 60/135/135 59/136/136
f 77/144/144 78/137/137 73/143/143
f 73/143/143 78/137/137 74/138/138
f 73/143/143 74/138/138 70/139/139
f 66/140/140 65/141/141 70/139/139
f 70/139/139 65/141/141 69/142/142
f 70/139/139 69/142/142 73/143/143
# 92 vertices
# 144 texture params
# 144 normals
# 88 facets

# 2 groups
